<svg xmlns="http://www.w3.org/2000/svg" width="64" height="64" viewBox="0 0 64 64" fill="none">
  <circle cx="32" cy="32" r="32" fill="#800020"/>
  <path d="M21.5 38.5c0 4 3.1 6.5 7.6 6.5h8.2c4.4 0 7.1-2.3 7.1-5.8 0-2.8-1.7-4.7-5.2-5.7l-6.6-1.8c-1.4-.4-1.9-.9-1.9-1.8 0-.9.9-1.8 2.5-1.8h5.1c1.7 0 2.9.9 2.9 2.2 0 .5-.1 1-.5 1.5l4.1 1c.9-1.2 1.4-2.6 1.4-4.2 0-3.7-2.9-6.4-7.1-6.4h-8.1c-4.1 0-7.1 2.7-7.1 6.4 0 2.7 2 5 5.2 5.8l6.8 1.9c1.3.4 2 1 2 2 0 1.1-1 1.9-2.6 1.9h-7.1c-1.9 0-3.2-1-3.2-2.6 0-.7.3-1.4.8-2l-4.2-1c-.9 1.3-1.5 2.8-1.5 4.4Z" fill="#F8FAFC"/>
  <path d="M46 20.5h-4.1v6.3h-9.2v-6.3h-4.1v23h4.1v-8.8h9.2v8.8H46v-23Z" fill="#F8FAFC"/>
</svg>
